# xmcd CD database file
#
# Track frame offsets:
#	150
#	14942
#	33957
#	52912
#	65710
#	79687
#	91682
#	110150
#	128875
#	147732
#	157200
#	173832
#	195112
#	216650
#	233702
#	259977
#	286837
#	312240
#	326987
#
# Disc length: 4666 seconds
#
# Revision: 2
# Processed by: cddbd v1.5.2PL0 Copyright (c) Steve Scherf et al.
# Submitted via: CDex 1.70beta2
#
DISCID=22123813
DTITLE=PAPUWA - 南国少年パプワくん
DYEAR=1900
DGENRE=Unclassifiable
TTITLE0=TOME - んばば・ラブソング
TTITLE1=大事MANブラザーズバンド - もしかすっとナンセンス
TTITLE2=影山ヒロノブ - 真夏の夢男〜シンタローのテーマ〜
TTITLE3=田中真弓 - 希望への扉〜南国少年のテーマ〜
TTITLE4=田中真弓 - パプワ音頭でつんつくつん
TTITLE5=田中真弓 - パプワ島へようこそ
TTITLE6=玄田哲章(イトウくん)&西村智博(タンノくん) - 刺し違えの愛
TTITLE7=速水奨&目黒裕一&山崎たくみ&中原茂 - 一致団結ガンマ団
TTITLE8=西原久美子 - メリークリスマス、パプワさま！
TTITLE9=田中真弓 - チャッピーとパプワの絵かき歌
TTITLE10=島田敏&彩乃木崇之&塩屋翼&菊池正美 - ロックン・ガンマ
TTITLE11=影山ヒロノブ - 運命という名の迷路
TTITLE12=速水奨&目黒裕一&鈴置洋孝&塩沢兼人 - 嵐の四兄弟
TTITLE13=田中真弓&緑川光 - パプワ島珍道中
TTITLE14=影山ヒロノブ - Friends…いつかどこかで
TTITLE15=速水奨 - マジックの憂うつ
TTITLE16=堀江美都子 - 僕らの島
TTITLE17=つのごうじ＆ピタゴラス - 気分はパプワ晴れ
TTITLE18=いいのまさし - ゆらりゆらり
EXTD=
EXTT0=
EXTT1=
EXTT2=
EXTT3=
EXTT4=
EXTT5=
EXTT6=
EXTT7=
EXTT8=
EXTT9=
EXTT10=
EXTT11=
EXTT12=
EXTT13=
EXTT14=
EXTT15=
EXTT16=
EXTT17=
EXTT18=
PLAYORDER=
